# Blender v2.82 (sub 7) OBJ File: ''
# www.blender.org
mtllib disk.mtl
o Cylinder
v -0.092692 -1.000000 0.000066
v 0.092692 -1.000000 -0.000066
v -0.092832 -0.980785 -0.195024
v 0.092552 -0.980785 -0.195157
v -0.092967 -0.923880 -0.382617
v 0.092418 -0.923880 -0.382750
v -0.093091 -0.831470 -0.555504
v 0.092294 -0.831470 -0.555637
v -0.093199 -0.707107 -0.707040
v 0.092185 -0.707107 -0.707173
v -0.093289 -0.555570 -0.831403
v 0.092096 -0.555570 -0.831536
v -0.093355 -0.382683 -0.923813
v 0.092030 -0.382683 -0.923946
v -0.093396 -0.195090 -0.980719
v 0.091989 -0.195090 -0.980851
v -0.093409 -0.000000 -0.999933
v 0.091975 -0.000000 -1.000066
v -0.093396 0.195090 -0.980719
v 0.091989 0.195090 -0.980852
v -0.093355 0.382683 -0.923813
v 0.092030 0.382683 -0.923946
v -0.093289 0.555570 -0.831403
v 0.092096 0.555570 -0.831536
v -0.093199 0.707107 -0.707040
v 0.092185 0.707107 -0.707173
v -0.093091 0.831470 -0.555504
v 0.092294 0.831470 -0.555637
v -0.092967 0.923880 -0.382617
v 0.092418 0.923880 -0.382750
v -0.092832 0.980785 -0.195024
v 0.092552 0.980785 -0.195157
v -0.092692 1.000000 0.000067
v 0.092692 1.000000 -0.000066
v -0.092552 0.980785 0.195157
v 0.092832 0.980785 0.195024
v -0.092418 0.923879 0.382750
v 0.092967 0.923879 0.382617
v -0.092294 0.831469 0.555637
v 0.093091 0.831469 0.555504
v -0.092185 0.707106 0.707174
v 0.093199 0.707106 0.707041
v -0.092096 0.555570 0.831536
v 0.093289 0.555570 0.831403
v -0.092030 0.382683 0.923946
v 0.093355 0.382683 0.923813
v -0.091989 0.195089 0.980852
v 0.093396 0.195089 0.980719
v -0.091975 -0.000001 1.000066
v 0.093409 -0.000001 0.999933
v -0.091989 -0.195091 0.980851
v 0.093396 -0.195091 0.980718
v -0.092030 -0.382684 0.923945
v 0.093355 -0.382684 0.923812
v -0.092096 -0.555571 0.831535
v 0.093289 -0.555571 0.831402
v -0.092185 -0.707108 0.707172
v 0.093199 -0.707108 0.707039
v -0.092294 -0.831470 0.555635
v 0.093091 -0.831470 0.555503
v -0.092418 -0.923880 0.382748
v 0.092967 -0.923880 0.382616
v -0.092552 -0.980786 0.195155
v 0.092832 -0.980786 0.195022
v -0.046811 -0.289350 0.000033
v -0.046851 -0.283790 -0.055666
v -0.046889 -0.267324 -0.109225
v -0.046925 -0.240585 -0.158585
v -0.046956 -0.204601 -0.201850
v -0.046981 -0.160754 -0.237356
v -0.047000 -0.110729 -0.263740
v -0.047012 -0.056449 -0.279987
v -0.047016 -0.000000 -0.285472
v -0.047012 0.056449 -0.279987
v -0.047000 0.110729 -0.263740
v -0.046981 0.160754 -0.237356
v -0.046956 0.204601 -0.201850
v -0.046925 0.240585 -0.158585
v -0.046889 0.267324 -0.109225
v -0.046851 0.283789 -0.055666
v -0.046811 0.289349 0.000034
v -0.046771 0.283789 0.055733
v -0.046733 0.267324 0.109292
v -0.046697 0.240585 0.158652
v -0.046666 0.204601 0.201917
v -0.046641 0.160754 0.237423
v -0.046622 0.110729 0.263807
v -0.046610 0.056449 0.280054
v -0.046606 -0.000000 0.285539
v -0.046610 -0.056450 0.280053
v -0.046622 -0.110730 0.263806
v -0.046641 -0.160754 0.237423
v -0.046666 -0.204601 0.201916
v -0.046697 -0.240586 0.158652
v -0.046732 -0.267324 0.109292
v -0.046771 -0.283790 0.055733
v 0.029248 -0.268372 0.053361
v 0.029284 -0.252801 0.104692
v 0.029318 -0.227515 0.151999
v 0.029348 -0.193486 0.193464
v 0.029372 -0.152021 0.227494
v 0.029390 -0.104714 0.252780
v 0.029401 -0.053383 0.268351
v 0.029405 -0.000000 0.273609
v 0.029401 0.053382 0.268351
v 0.029390 0.104713 0.252780
v 0.029372 0.152020 0.227494
v 0.029348 0.193485 0.193465
v 0.029318 0.227515 0.152000
v 0.029284 0.252801 0.104693
v 0.029247 0.268372 0.053362
v 0.029209 0.273630 -0.000021
v 0.029171 0.268372 -0.053403
v 0.029134 0.252801 -0.104735
v 0.029100 0.227515 -0.152042
v 0.029070 0.193485 -0.193506
v 0.029046 0.152020 -0.227536
v 0.029028 0.104713 -0.252822
v 0.029017 0.053382 -0.268393
v 0.029013 -0.000000 -0.273651
v 0.029016 -0.053383 -0.268393
v 0.029028 -0.104714 -0.252822
v 0.029046 -0.152021 -0.227536
v 0.029070 -0.193486 -0.193506
v 0.029100 -0.227515 -0.152042
v 0.029134 -0.252801 -0.104735
v 0.029171 -0.268372 -0.053404
v 0.029209 -0.273630 -0.000021
v -0.092031 -0.385312 0.922541
v 0.073977 -0.382684 0.923826
v 0.093355 -0.382352 0.923913
v 0.093289 -0.555164 0.831620
v 0.073600 -0.555571 0.831416
v -0.092098 -0.558575 0.829070
v 0.178181 -1.100982 -0.010518
v 0.178027 -1.079720 -0.226391
v 0.177878 -1.016752 -0.433969
v 0.177741 -0.914497 -0.625274
v 0.177620 -0.776886 -0.792954
v 0.177522 -0.609206 -0.930566
v 0.177448 -0.417901 -1.032820
v 0.177403 -0.210323 -1.095788
v 0.177388 0.005551 -1.117050
v 0.177403 0.221425 -1.095788
v 0.177448 0.429002 -1.032820
v 0.177522 0.620307 -0.930566
v 0.177620 0.787988 -0.792954
v 0.177741 0.925599 -0.625274
v 0.177878 1.027854 -0.433969
v 0.178027 1.090822 -0.226391
v 0.178182 1.112083 -0.010517
v 0.178336 1.090822 0.205357
v 0.178485 1.027853 0.412934
v 0.178622 0.925599 0.604239
v 0.178743 0.787987 0.771919
v 0.178841 0.620307 0.909531
v 0.178915 0.429002 1.011785
v 0.178960 0.221424 1.074753
v 0.178975 0.005550 1.096015
v 0.178960 -0.210324 1.074753
v 0.178915 -0.417902 1.011784
v 0.178841 -0.609207 0.909530
v 0.178743 -0.776887 0.771918
v 0.178622 -0.914498 0.604237
v 0.178485 -1.016753 0.412932
v 0.178336 -1.079720 0.205354
v 0.157473 -0.417902 1.011800
v 0.178915 -0.417534 1.011896
v 0.178841 -0.608756 0.909770
v 0.157055 -0.609207 0.909545
v -0.197263 -1.091326 -0.004802
v -0.197416 -1.070308 -0.218193
v -0.197564 -1.008065 -0.423383
v -0.197699 -0.906986 -0.612487
v -0.197818 -0.770958 -0.778238
v -0.197916 -0.605207 -0.914267
v -0.197988 -0.416102 -1.015345
v -0.198033 -0.210912 -1.077588
v -0.198048 0.002478 -1.098606
v -0.198033 0.215868 -1.077589
v -0.197988 0.421058 -1.015345
v -0.197915 0.610163 -0.914267
v -0.197818 0.775914 -0.778238
v -0.197699 0.911942 -0.612487
v -0.197563 1.013021 -0.423383
v -0.197416 1.075264 -0.218192
v -0.197263 1.096282 -0.004802
v -0.197110 1.075264 0.208589
v -0.196963 1.013021 0.413779
v -0.196828 0.911942 0.602883
v -0.196709 0.775913 0.768634
v -0.196611 0.610162 0.904662
v -0.196539 0.421058 1.005741
v -0.196494 0.215868 1.067984
v -0.196479 0.002477 1.089001
v -0.196494 -0.210914 1.067984
v -0.196539 -0.416104 1.005740
v -0.196611 -0.605208 0.904661
v -0.196709 -0.770959 0.768632
v -0.196828 -0.906987 0.602881
v -0.196963 -1.008065 0.413777
v -0.197110 -1.070309 0.208587
v -0.196540 -0.418978 1.004204
v -0.196613 -0.608493 0.901965
vt 1.000000 0.500000
vt 0.968750 0.500000
vt 0.968750 1.000000
vt 1.000000 1.000000
vt 0.937500 0.500000
vt 0.937500 1.000000
vt 0.906250 0.500000
vt 0.906250 1.000000
vt 0.875000 0.500000
vt 0.875000 1.000000
vt 0.843750 0.500000
vt 0.843750 1.000000
vt 0.812500 0.500000
vt 0.812500 1.000000
vt 0.781250 0.500000
vt 0.781250 1.000000
vt 0.750000 0.500000
vt 0.750000 1.000000
vt 0.718750 0.500000
vt 0.718750 1.000000
vt 0.687500 0.500000
vt 0.687500 1.000000
vt 0.656250 0.500000
vt 0.656250 1.000000
vt 0.625000 0.500000
vt 0.625000 1.000000
vt 0.593750 0.500000
vt 0.593750 1.000000
vt 0.562500 0.500000
vt 0.562500 1.000000
vt 0.531250 0.500000
vt 0.531250 1.000000
vt 0.500000 0.500000
vt 0.500000 1.000000
vt 0.468750 0.500000
vt 0.468750 1.000000
vt 0.437500 0.500000
vt 0.437500 1.000000
vt 0.406250 0.500000
vt 0.406250 1.000000
vt 0.375000 0.500000
vt 0.375000 1.000000
vt 0.343750 0.500000
vt 0.343750 1.000000
vt 0.312500 0.500000
vt 0.312500 1.000000
vt 0.281250 0.500000
vt 0.281250 1.000000
vt 0.250000 0.500000
vt 0.250000 1.000000
vt 0.218750 0.500000
vt 0.218750 1.000000
vt 0.156324 1.000000
vt 0.156324 1.000000
vt 0.156250 1.000000
vt 0.156250 1.000000
vt 0.125000 1.000000
vt 0.125000 1.000000
vt 0.156250 0.946899
vt 0.155631 0.500000
vt 0.125000 0.500000
vt 0.093750 0.500000
vt 0.093750 1.000000
vt 0.062500 0.500000
vt 0.062500 1.000000
vt 0.781250 1.000000
vt 0.812500 1.000000
vt 0.031250 0.500000
vt 0.031250 1.000000
vt 0.000000 0.500000
vt 0.000000 1.000000
vt 0.625000 0.500000
vt 0.593750 0.500000
vt 0.843750 1.000000
vt 0.875000 1.000000
vt 0.343750 0.500000
vt 0.312500 0.500000
vt 0.062500 0.500000
vt 0.031250 0.500000
vt 0.750000 0.500000
vt 0.718750 0.500000
vt 0.468750 0.500000
vt 0.437500 0.500000
vt 0.187025 0.500000
vt 0.187500 0.500000
vt 0.156250 0.500000
vt 0.156250 0.500000
vt 0.875000 0.500000
vt 0.843750 0.500000
vt 0.562500 0.500000
vt 0.281250 0.500000
vt 1.000000 0.500000
vt 0.968750 0.500000
vt 0.000000 0.500000
vt 0.687500 0.500000
vt 0.406250 0.500000
vt 0.125000 0.500000
vt 0.812500 0.500000
vt 0.531250 0.500000
vt 0.250000 0.500000
vt 0.937500 0.500000
vt 0.656250 0.500000
vt 0.375000 0.500000
vt 0.093750 0.500000
vt 0.781250 0.500000
vt 0.500000 0.500000
vt 0.218750 0.500000
vt 0.906250 0.500000
vt 0.187500 0.500000
vt 0.093750 1.000000
vt 0.125000 1.000000
vt 0.906250 1.000000
vt 0.937500 1.000000
vt 0.156250 1.000000
vt 0.187500 1.000000
vt 0.187500 1.000000
vt 0.656250 1.000000
vt 0.687500 1.000000
vt 0.218750 1.000000
vt 0.250000 1.000000
vt 0.437500 1.000000
vt 0.468750 1.000000
vt 0.968750 1.000000
vt 0.500000 1.000000
vt 0.531250 1.000000
vt 0.718750 1.000000
vt 0.750000 1.000000
vt 0.281250 1.000000
vt 0.031250 1.000000
vt 0.062500 1.000000
vt 0.562500 1.000000
vt 0.375000 1.000000
vt 0.406250 1.000000
vt 0.312500 1.000000
vt 0.343750 1.000000
vt 0.593750 1.000000
vt 0.625000 1.000000
vt 0.187555 1.000000
vt 0.000000 1.000000
vt 1.000000 1.000000
vt 0.187500 0.947737
vt 0.187500 0.947737
vt 0.187500 1.000000
vt 0.187555 1.000000
vt 0.156250 0.946899
vt 0.843750 1.000000
vt 0.812500 1.000000
vt 0.562500 1.000000
vt 0.531250 1.000000
vt 0.281250 1.000000
vt 0.250000 1.000000
vt 0.968750 1.000000
vt 0.937500 1.000000
vt 0.687500 1.000000
vt 0.656250 1.000000
vt 0.406250 1.000000
vt 0.375000 1.000000
vt 0.093750 1.000000
vt 0.781250 1.000000
vt 0.500000 1.000000
vt 0.218750 1.000000
vt 0.906250 1.000000
vt 0.625000 1.000000
vt 0.343750 1.000000
vt 0.062500 1.000000
vt 0.750000 1.000000
vt 0.468750 1.000000
vt 0.875000 1.000000
vt 0.593750 1.000000
vt 0.312500 1.000000
vt 0.031250 1.000000
vt 0.718750 1.000000
vt 0.437500 1.000000
vt 1.000000 1.000000
vt 0.000000 1.000000
vt 0.812500 0.500000
vt 0.843750 0.500000
vt 0.531250 0.500000
vt 0.562500 0.500000
vt 0.250000 0.500000
vt 0.281250 0.500000
vt 0.937500 0.500000
vt 0.968750 0.500000
vt 0.656250 0.500000
vt 0.687500 0.500000
vt 0.375000 0.500000
vt 0.406250 0.500000
vt 0.093750 0.500000
vt 0.125000 0.500000
vt 0.155631 0.500000
vt 0.156250 0.500000
vt 0.781250 0.500000
vt 0.500000 0.500000
vt 0.218750 0.500000
vt 0.906250 0.500000
vt 0.625000 0.500000
vt 0.343750 0.500000
vt 0.062500 0.500000
vt 0.750000 0.500000
vt 0.468750 0.500000
vt 0.187500 0.500000
vt 0.187025 0.500000
vt 0.875000 0.500000
vt 0.593750 0.500000
vt 0.312500 0.500000
vt 0.031250 0.500000
vt 0.718750 0.500000
vt 0.437500 0.500000
vt 1.000000 0.500000
vt 0.000000 0.500000
vn -0.0001 -0.9952 -0.0980
vn -0.0002 -0.9569 -0.2903
vn -0.0003 -0.8819 -0.4714
vn -0.0005 -0.7730 -0.6344
vn -0.0006 -0.6344 -0.7730
vn -0.0006 -0.4714 -0.8819
vn -0.0007 -0.2903 -0.9569
vn -0.0007 -0.0980 -0.9952
vn -0.0007 0.0980 -0.9952
vn -0.0007 0.2903 -0.9569
vn -0.0006 0.4714 -0.8819
vn -0.0006 0.6344 -0.7730
vn -0.0005 0.7730 -0.6344
vn -0.0003 0.8819 -0.4714
vn -0.0002 0.9569 -0.2903
vn -0.0001 0.9952 -0.0980
vn 0.0001 0.9952 0.0980
vn 0.0002 0.9569 0.2903
vn 0.0003 0.8819 0.4714
vn 0.0005 0.7730 0.6344
vn 0.0006 0.6344 0.7730
vn 0.0006 0.4714 0.8819
vn 0.0007 0.2903 0.9569
vn 0.0007 0.0980 0.9952
vn 0.0007 -0.0980 0.9952
vn 0.7402 0.3167 -0.5931
vn 0.7411 0.4257 -0.5192
vn 0.0006 -0.6344 0.7730
vn 0.0005 -0.7730 0.6344
vn 0.0003 -0.8819 0.4714
vn 0.9962 0.0254 0.0830
vn 0.0002 -0.9569 0.2903
vn 0.0001 -0.9952 0.0980
vn -0.9979 -0.0499 0.0418
vn 0.9962 0.0555 0.0669
vn -0.9980 -0.0303 -0.0562
vn -0.9979 0.0619 -0.0181
vn -0.9979 -0.0063 0.0648
vn -0.9979 -0.0619 -0.0181
vn -0.9980 0.0303 -0.0562
vn -0.9979 0.0409 0.0507
vn -0.9979 -0.0570 0.0313
vn -0.9980 -0.0186 -0.0609
vn -0.9979 0.0644 0.0071
vn -0.9979 0.0644 -0.0056
vn -0.9979 -0.0186 0.0624
vn -0.9979 -0.0570 -0.0298
vn -0.9980 0.0409 -0.0492
vn -0.9979 0.0303 0.0576
vn -0.9979 -0.0619 0.0196
vn -0.9980 -0.0063 -0.0634
vn -0.9979 0.0619 0.0196
vn -0.9979 -0.0303 0.0576
vn -0.9979 -0.0499 -0.0403
vn -0.9979 0.0499 -0.0403
vn -0.9979 0.0186 0.0624
vn -0.9979 -0.0644 0.0071
vn -0.9980 0.0063 -0.0634
vn -0.9979 0.0570 0.0313
vn -0.9979 -0.0409 0.0507
vn -0.9980 -0.0409 -0.0492
vn -0.9979 0.0570 -0.0298
vn -0.9979 0.0063 0.0648
vn -0.9979 -0.0644 -0.0056
vn -0.9980 0.0186 -0.0609
vn -0.9979 0.0499 0.0418
vn 0.9961 0.0676 -0.0562
vn 0.9962 0.0772 0.0405
vn 0.9961 0.0412 -0.0779
vn 0.9962 -0.0412 0.0764
vn 0.9961 0.0086 -0.0878
vn 0.9961 -0.0837 -0.0261
vn 0.9962 0.0837 0.0247
vn 0.9962 -0.0871 0.0079
vn 0.9962 -0.0086 0.0863
vn 0.9961 -0.0086 -0.0878
vn 0.9961 0.0837 -0.0261
vn 0.9962 -0.0837 0.0247
vn 0.9961 -0.0676 -0.0562
vn 0.9961 -0.0412 -0.0779
vn 0.9962 0.0412 0.0764
vn 0.9962 -0.0676 0.0548
vn 0.9961 0.0555 -0.0683
vn 0.9962 0.0676 0.0548
vn 0.9961 -0.0772 -0.0420
vn 0.9961 0.0254 -0.0844
vn 0.9962 -0.0254 0.0830
vn 0.9962 -0.0871 -0.0093
vn 0.9962 0.0871 -0.0093
vn 0.9962 0.0086 0.0863
vn 0.9962 0.0871 0.0079
vn 0.9961 0.0772 -0.0420
vn 0.9961 -0.0254 -0.0844
vn 0.9961 -0.0555 -0.0683
vn 0.9962 -0.0772 0.0405
vn 0.9962 -0.0555 0.0669
vn 0.0007 -0.2903 0.9569
vn 0.0006 -0.4714 0.8819
vn -0.9980 0.0304 -0.0561
vn -0.1548 0.0962 -0.9833
vn -0.1584 0.2849 -0.9454
vn -0.1650 0.4625 -0.8711
vn -0.1735 0.6223 -0.7633
vn -0.1828 0.7580 -0.6262
vn -0.1913 0.8644 -0.4651
vn -0.1978 0.9375 -0.2862
vn -0.2012 0.9748 -0.0965
vn -0.2010 0.9748 0.0968
vn -0.1973 0.9375 0.2865
vn -0.1906 0.8644 0.4653
vn -0.1819 0.7579 0.6264
vn -0.1724 0.6223 0.7636
vn -0.1637 0.4625 0.8714
vn -0.1570 0.2849 0.9456
vn -0.1534 0.0962 0.9835
vn -0.1534 -0.0962 0.9835
vn -0.1570 -0.2849 0.9456
vn -0.1637 -0.4625 0.8714
vn -0.1724 -0.6223 0.7636
vn -0.1819 -0.7579 0.6264
vn -0.1906 -0.8644 0.4653
vn -0.1973 -0.9375 0.2865
vn -0.2010 -0.9748 0.0968
vn -0.2012 -0.9748 -0.0965
vn -0.1978 -0.9375 -0.2862
vn -0.1913 -0.8644 -0.4651
vn -0.1828 -0.7579 -0.6262
vn -0.1735 -0.6223 -0.7633
vn -0.1650 -0.4625 -0.8711
vn -0.1584 -0.2849 -0.9454
vn -0.1548 -0.0962 -0.9833
vn 0.0007 -0.2902 0.9570
vn 0.7967 0.2851 0.5329
vn 0.8010 -0.5730 0.1733
vn 0.7471 -0.0651 -0.6615
vn -0.0004 -0.8246 -0.5657
vn 0.7718 0.6087 0.1841
vn 0.8097 -0.2769 0.5174
vn 0.7713 -0.4917 -0.4041
vn 0.7435 0.5167 -0.4246
vn 0.8013 0.1738 0.5724
vn 0.7964 -0.6019 0.0587
vn 0.7433 0.0655 -0.6657
vn -0.0228 0.8127 0.5823
vn 0.7786 0.5536 0.2954
vn 0.8091 -0.3731 0.4540
vn 0.7645 -0.4087 -0.4985
vn 0.7473 0.5858 -0.3136
vn 0.8050 0.0582 0.5905
vn 0.7909 -0.6089 -0.0605
vn -0.7410 -0.1948 0.6427
vn -0.0003 -0.9285 -0.3714
vn 0.7852 0.4789 0.3925
vn 0.8074 -0.4563 0.3739
vn 0.7580 -0.3073 -0.5754
vn 0.7411 0.1948 -0.6426
vn 0.7524 0.6302 -0.1917
vn -0.0176 0.9224 0.3859
vn 0.8076 -0.0579 0.5869
vn 0.7848 -0.5929 -0.1804
vn -0.7402 -0.3167 0.5931
vn 0.7913 0.3881 0.4724
vn 0.8047 -0.5238 0.2794
vn 0.7649 0.6411 0.0626
vn 0.7521 -0.1912 -0.6308
vn 0.7583 0.6487 -0.0644
vn 0.8092 -0.1707 0.5622
vn 0.7782 -0.5536 -0.2965
vn -0.6779 0.3464 0.6485
vn -0.6805 -0.7010 0.2131
vn -0.6473 -0.0748 -0.7585
vn -0.6621 0.7170 0.2180
vn -0.6866 -0.3425 0.6413
vn -0.6614 -0.5800 -0.4755
vn -0.6455 0.5906 -0.4842
vn -0.6441 0.4855 -0.5911
vn -0.6809 0.2125 0.7008
vn -0.6774 -0.7320 0.0726
vn -0.6452 0.0749 -0.7603
vn -0.6663 0.6574 0.3519
vn -0.6862 -0.4612 0.5625
vn -0.6573 -0.4783 -0.5824
vn -0.6477 0.6721 -0.3588
vn -0.6834 0.0715 0.7265
vn -0.6738 -0.7354 -0.0720
vn 0.6440 -0.2222 0.7320
vn -0.6436 0.3610 -0.6749
vn -0.6704 0.5733 0.4710
vn -0.6850 -0.5629 0.4625
vn -0.6535 -0.3570 -0.6675
vn -0.6506 0.7269 -0.2200
vn -0.6852 -0.0713 0.7248
vn -0.6698 -0.7107 -0.2151
vn 0.6436 -0.3610 0.6749
vn -0.6743 0.4682 0.5710
vn -0.6831 -0.6439 0.3447
vn -0.6501 -0.2207 -0.7271
vn -0.6579 0.7494 0.0743
vn -0.6541 0.7528 -0.0737
vn -0.6863 -0.2110 0.6961
vn -0.6656 -0.6583 -0.3514
usemtl None
s off
f 1/1/1 3/2/1 4/3/1 2/4/1
f 3/2/2 5/5/2 6/6/2 4/3/2
f 5/5/3 7/7/3 8/8/3 6/6/3
f 7/7/4 9/9/4 10/10/4 8/8/4
f 9/9/5 11/11/5 12/12/5 10/10/5
f 11/11/6 13/13/6 14/14/6 12/12/6
f 13/13/7 15/15/7 16/16/7 14/14/7
f 15/15/8 17/17/8 18/18/8 16/16/8
f 17/17/9 19/19/9 20/20/9 18/18/9
f 19/19/10 21/21/10 22/22/10 20/20/10
f 21/21/11 23/23/11 24/24/11 22/22/11
f 23/23/12 25/25/12 26/26/12 24/24/12
f 25/25/13 27/27/13 28/28/13 26/26/13
f 27/27/14 29/29/14 30/30/14 28/28/14
f 29/29/15 31/31/15 32/32/15 30/30/15
f 31/31/16 33/33/16 34/34/16 32/32/16
f 33/33/17 35/35/17 36/36/17 34/34/17
f 35/35/18 37/37/18 38/38/18 36/36/18
f 37/37/19 39/39/19 40/40/19 38/38/19
f 39/39/20 41/41/20 42/42/20 40/40/20
f 41/41/21 43/43/21 44/44/21 42/42/21
f 43/43/22 45/45/22 46/46/22 44/44/22
f 45/45/23 47/47/23 48/48/23 46/46/23
f 47/47/24 49/49/24 50/50/24 48/48/24
f 49/49/25 51/51/25 52/52/25 50/50/25
f 132/53/26 169/54/26 162/55/26 56/56/26
f 56/56/27 162/55/27 163/57/27 58/58/27
f 133/59/28 134/60/28 57/61/28 58/58/28 56/56/28
f 57/61/29 59/62/29 60/63/29 58/58/29
f 59/62/30 61/64/30 62/65/30 60/63/30
f 16/16/31 121/66/31 122/67/31 14/14/31
f 61/64/32 63/68/32 64/69/32 62/65/32
f 63/68/33 1/70/33 2/71/33 64/69/33
f 25/25/34 77/72/34 78/73/34 27/27/34
f 12/12/35 123/74/35 124/75/35 10/10/35
f 43/43/36 86/76/36 87/77/36 45/45/36
f 61/64/37 95/78/37 96/79/37 63/68/37
f 17/17/38 73/80/38 74/81/38 19/19/38
f 35/35/39 82/82/39 83/83/39 37/37/39
f 129/84/40 91/85/40 92/86/40 55/87/40
f 9/9/41 69/88/41 70/89/41 11/11/41
f 27/27/42 78/73/42 79/90/42 29/29/42
f 45/45/43 87/77/43 88/91/43 47/47/43
f 1/1/44 65/92/44 66/93/44 3/2/44
f 63/68/45 96/79/45 65/94/45 1/70/45
f 19/19/46 74/81/46 75/95/46 21/21/46
f 37/37/47 83/83/47 84/96/47 39/39/47
f 134/60/48 92/86/48 93/97/48 57/61/48
f 11/11/49 70/89/49 71/98/49 13/13/49
f 29/29/50 79/90/50 80/99/50 31/31/50
f 47/47/51 88/91/51 89/100/51 49/49/51
f 3/2/52 66/93/52 67/101/52 5/5/52
f 21/21/53 75/95/53 76/102/53 23/23/53
f 39/39/54 84/96/54 85/103/54 41/41/54
f 57/61/55 93/97/55 94/104/55 59/62/55
f 13/13/56 71/98/56 72/105/56 15/15/56
f 31/31/57 80/99/57 81/106/57 33/33/57
f 49/49/58 89/100/58 90/107/58 51/51/58
f 5/5/59 67/101/59 68/108/59 7/7/59
f 23/23/60 76/102/60 77/72/60 25/25/60
f 41/41/61 85/103/61 86/76/61 43/43/61
f 59/62/62 94/104/62 95/78/62 61/64/62
f 15/15/63 72/105/63 73/80/63 17/17/63
f 33/33/64 81/106/64 82/82/64 35/35/64
f 51/51/65 90/107/65 91/85/65 53/109/65
f 7/7/66 68/108/66 69/88/66 9/9/66
f 60/63/67 99/110/67 100/111/67 58/58/67
f 8/8/68 125/112/68 126/113/68 6/6/68
f 132/53/69 101/114/69 102/115/69 54/116/69
f 24/24/70 117/117/70 118/118/70 22/22/70
f 52/52/71 103/119/71 104/120/71 50/50/71
f 38/38/72 110/121/72 111/122/72 36/36/72
f 6/6/73 126/113/73 127/123/73 4/3/73
f 34/34/74 112/124/74 113/125/74 32/32/74
f 20/20/75 119/126/75 120/127/75 18/18/75
f 50/50/76 104/120/76 105/128/76 48/48/76
f 64/69/77 97/129/77 98/130/77 62/65/77
f 32/32/78 113/125/78 114/131/78 30/30/78
f 42/42/79 108/132/79 109/133/79 40/40/79
f 46/46/80 106/134/80 107/135/80 44/44/80
f 14/14/81 122/67/81 123/74/81 12/12/81
f 28/28/82 115/136/82 116/137/82 26/26/82
f 58/58/83 100/111/83 101/114/83 56/56/83
f 10/10/84 124/75/84 125/112/84 8/8/84
f 40/40/85 109/133/85 110/121/85 38/38/85
f 131/138/86 102/115/86 103/119/86 52/52/86
f 22/22/87 118/118/87 119/126/87 20/20/87
f 36/36/88 111/122/88 112/124/88 34/34/88
f 2/71/89 128/139/89 97/129/89 64/69/89
f 18/18/90 120/127/90 121/66/90 16/16/90
f 4/3/91 127/123/91 128/140/91 2/4/91
f 62/65/92 98/130/92 99/110/92 60/63/92
f 48/48/93 105/128/93 106/134/93 46/46/93
f 44/44/94 107/135/94 108/132/94 42/42/94
f 30/30/95 114/131/95 115/136/95 28/28/95
f 26/26/96 116/137/96 117/117/96 24/24/96
f 51/51/97 53/109/97 130/141/97 131/138/97 52/52/97
f 53/109/98 129/84/98 130/141/98
f 54/116/86 102/115/86 131/138/86
f 53/109/99 91/85/99 129/84/99
f 55/87/28 134/60/28 133/59/28
f 130/141/98 129/84/98 55/87/98 133/59/98 132/53/98 54/116/98
f 56/56/69 101/114/69 132/53/69
f 55/87/48 92/86/48 134/60/48
f 89/100/100 104/120/100 103/119/100 90/107/100
f 90/107/101 103/119/101 102/115/101 91/85/101
f 91/85/102 102/115/102 101/114/102 92/86/102
f 92/86/103 101/114/103 100/111/103 93/97/103
f 93/97/104 100/111/104 99/110/104 94/104/104
f 94/104/105 99/110/105 98/130/105 95/78/105
f 95/78/106 98/130/106 97/129/106 96/79/106
f 96/79/107 97/129/107 128/139/107 65/94/107
f 65/94/108 128/139/108 127/123/108 66/93/108
f 66/93/109 127/123/109 126/113/109 67/101/109
f 67/101/110 126/113/110 125/112/110 68/108/110
f 68/108/111 125/112/111 124/75/111 69/88/111
f 69/88/112 124/75/112 123/74/112 70/89/112
f 70/89/113 123/74/113 122/67/113 71/98/113
f 71/98/114 122/67/114 121/66/114 72/105/114
f 72/105/115 121/66/115 120/127/115 73/80/115
f 73/80/116 120/127/116 119/126/116 74/81/116
f 74/81/117 119/126/117 118/118/117 75/95/117
f 75/95/118 118/118/118 117/117/118 76/102/118
f 76/102/119 117/117/119 116/137/119 77/72/119
f 77/72/120 116/137/120 115/136/120 78/73/120
f 78/73/121 115/136/121 114/131/121 79/90/121
f 79/90/122 114/131/122 113/125/122 80/99/122
f 80/99/123 113/125/123 112/124/123 81/106/123
f 81/106/124 112/124/124 111/122/124 82/82/124
f 82/82/125 111/122/125 110/121/125 83/83/125
f 83/83/126 110/121/126 109/133/126 84/96/126
f 84/96/127 109/133/127 108/132/127 85/103/127
f 85/103/128 108/132/128 107/135/128 86/76/128
f 86/76/129 107/135/129 106/134/129 87/77/129
f 87/77/130 106/134/130 105/128/130 88/91/130
f 88/91/131 105/128/131 104/120/131 89/100/131
f 167/142/132 161/143/132 168/144/132
f 170/145/98 162/55/98 169/54/98
f 12/12/133 140/146/133 141/147/133 14/14/133
f 30/30/134 149/148/134 150/149/134 32/32/134
f 48/48/135 158/150/135 159/151/135 50/50/135
f 56/56/136 162/55/136 170/145/136 133/59/136
f 4/3/137 136/152/137 137/153/137 6/6/137
f 22/22/138 145/154/138 146/155/138 24/24/138
f 40/40/139 154/156/139 155/157/139 42/42/139
f 58/58/140 163/57/140 164/158/140 60/63/140
f 14/14/141 141/147/141 142/159/141 16/16/141
f 32/32/142 150/149/142 151/160/142 34/34/142
f 50/50/143 159/151/143 160/161/143 52/52/143
f 133/59/144 170/145/144 169/54/144 132/53/144
f 6/6/145 137/153/145 138/162/145 8/8/145
f 24/24/146 146/155/146 147/163/146 26/26/146
f 42/42/147 155/157/147 156/164/147 44/44/147
f 60/63/148 164/158/148 165/165/148 62/65/148
f 16/16/149 142/159/149 143/166/149 18/18/149
f 34/34/150 151/160/150 152/167/150 36/36/150
f 131/138/151 168/144/151 160/161/151 52/52/151
f 54/116/152 161/143/152 167/142/152 130/141/152
f 8/8/153 138/162/153 139/168/153 10/10/153
f 26/26/154 147/163/154 148/169/154 28/28/154
f 44/44/155 156/164/155 157/170/155 46/46/155
f 131/138/156 168/144/156 161/143/156 54/116/156
f 62/65/157 165/165/157 166/171/157 64/69/157
f 130/141/158 167/142/158 168/144/158 131/138/158
f 18/18/159 143/166/159 144/172/159 20/20/159
f 36/36/160 152/167/160 153/173/160 38/38/160
f 132/53/161 169/54/161 161/143/161 54/116/161
f 10/10/162 139/168/162 140/146/162 12/12/162
f 28/28/163 148/169/163 149/148/163 30/30/163
f 2/4/164 135/174/164 136/152/164 4/3/164
f 46/46/165 157/170/165 158/150/165 48/48/165
f 64/69/166 166/171/166 135/175/166 2/71/166
f 20/20/167 144/172/167 145/154/167 22/22/167
f 38/38/168 153/173/168 154/156/168 40/40/168
f 13/13/169 177/176/169 176/177/169 11/11/169
f 31/31/170 186/178/170 185/179/170 29/29/170
f 49/49/171 195/180/171 194/181/171 47/47/171
f 5/5/172 173/182/172 172/183/172 3/2/172
f 23/23/173 182/184/173 181/185/173 21/21/173
f 41/41/174 191/186/174 190/187/174 39/39/174
f 59/62/175 200/188/175 199/189/175 57/61/175
f 134/60/176 204/190/176 198/191/176 55/87/176
f 15/15/177 178/192/177 177/176/177 13/13/177
f 33/33/178 187/193/178 186/178/178 31/31/178
f 51/51/179 196/194/179 195/180/179 49/49/179
f 7/7/180 174/195/180 173/182/180 5/5/180
f 25/25/181 183/196/181 182/184/181 23/23/181
f 43/43/182 192/197/182 191/186/182 41/41/182
f 61/64/183 201/198/183 200/188/183 59/62/183
f 17/17/184 179/199/184 178/192/184 15/15/184
f 35/35/185 188/200/185 187/193/185 33/33/185
f 51/51/186 196/194/186 197/201/186 53/109/186
f 129/84/187 203/202/187 197/201/187 53/109/187
f 9/9/188 175/203/188 174/195/188 7/7/188
f 27/27/189 184/204/189 183/196/189 25/25/189
f 45/45/190 193/205/190 192/197/190 43/43/190
f 63/68/191 202/206/191 201/198/191 61/64/191
f 19/19/192 180/207/192 179/199/192 17/17/192
f 37/37/193 189/208/193 188/200/193 35/35/193
f 129/84/194 203/202/194 198/191/194 55/87/194
f 11/11/195 176/177/195 175/203/195 9/9/195
f 29/29/196 185/179/196 184/204/196 27/27/196
f 47/47/197 194/181/197 193/205/197 45/45/197
f 3/2/198 172/183/198 171/209/198 1/1/198
f 1/70/199 171/210/199 202/206/199 63/68/199
f 21/21/200 181/185/200 180/207/200 19/19/200
f 39/39/201 190/187/201 189/208/201 37/37/201
f 57/61/176 199/189/176 204/190/176 134/60/176
